<?xml version="1.0" encoding="UTF-8"?>
<svg version="1.1" id="Capa_1" x="0px" y="0px" viewBox="0 0 1920 1920" style="enable-background:new 0 0 1920 1920;" xml:space="preserve" width="1920" height="1920">
        <path style="opacity:0.992" fill="#ff9637" d="M 916.5,30.5 C 1171.24,22.7828 1393.58,102.616 1583.5,270C 1771.09,444.06 1872.59,659.56 1888,916.5C 1896.21,1171.27 1816.54,1393.6 1649,1583.5C 1474.94,1771.09 1259.44,1872.59 1002.5,1888C 747.733,1896.21 525.4,1816.54 335.5,1649C 147.906,1474.94 46.4057,1259.44 31,1002.5C 22.7914,747.733 102.458,525.4 270,335.5C 444.249,147.974 659.749,46.3078 916.5,30.5 Z"/>
        <path style="opacity:1" fill="#f6e7e0" d="M 921.5,110.5 C 1154.11,104.628 1357.11,178.128 1530.5,331C 1701.65,490.839 1794.15,688.339 1808,923.5C 1814.16,1155.74 1740.83,1358.41 1588,1531.5C 1433.16,1697.33 1241.99,1789.49 1014.5,1808C 774.964,1819.94 565.964,1746.94 387.5,1589C 216.048,1428.89 123.548,1231.06 110,995.5C 103.699,764.013 176.699,562.013 329,389.5C 488.92,218.138 686.42,125.138 921.5,110.5 Z"/>
        <path style="opacity:1" fill="#ff9637" d="M 881.5,272.5 C 900.831,272.33 910.165,281.83 909.5,301C 908.851,463.83 908.684,626.663 909,789.5C 903.021,802.251 893.854,805.418 881.5,799C 764.639,681.806 647.473,564.973 530,448.5C 524.637,438.154 525.637,428.488 533,419.5C 619.232,352.142 716.066,306.309 823.5,282C 842.885,278.218 862.219,275.051 881.5,272.5 Z"/>
        <path style="opacity:1" fill="#ff9637" d="M 1035.5,272.5 C 1154.79,286.087 1263.79,326.587 1362.5,394C 1373.62,402.119 1384.45,410.619 1395,419.5C 1401.45,428.415 1402.11,437.748 1397,447.5C 1386.5,457.333 1376,467.167 1365.5,477C 1259.5,583.667 1153.5,690.333 1047.5,797C 1035.14,804.943 1025.64,802.443 1019,789.5C 1018.81,626.83 1018.31,464.163 1017.5,301.5C 1015.63,286.901 1021.63,277.234 1035.5,272.5 Z"/>
        <path style="opacity:1" fill="#ff9637" d="M 424.5,520.5 C 430.892,519.791 436.892,520.957 442.5,524C 455.333,537.5 468.167,551 481,564.5C 585,667.833 689,771.167 793,874.5C 800.695,886.742 798.195,896.242 785.5,903C 617.824,903.358 450.157,903.691 282.5,904C 272.84,899.187 267.84,891.353 267.5,880.5C 283.626,749.531 331.792,632.198 412,528.5C 415.671,524.923 419.838,522.256 424.5,520.5 Z"/>
        <path style="opacity:1" fill="#ff9637" d="M 1481.5,520.5 C 1490.89,519.553 1499.05,522.219 1506,528.5C 1570.4,611.981 1615.07,705.314 1640,808.5C 1645.23,832.1 1649.06,855.933 1651.5,880C 1648.95,898.696 1638.29,906.529 1619.5,903.5C 1457.84,902.622 1296.17,902.456 1134.5,903C 1124.5,898.838 1120.33,891.338 1122,880.5C 1123,878.833 1124,877.167 1125,875.5C 1242.19,758.639 1359.03,641.473 1475.5,524C 1477.73,523.059 1479.73,521.892 1481.5,520.5 Z"/>
        <path style="opacity:1" fill="#ff9637" d="M 283.5,1013.5 C 450.495,1014.21 617.495,1014.37 784.5,1014C 797.43,1019.79 800.597,1028.96 794,1041.5C 676.806,1158.36 559.973,1275.53 443.5,1393C 432.245,1398.74 422.079,1397.24 413,1388.5C 346.241,1302.3 300.908,1205.63 277,1098.5C 273.227,1078.26 270.061,1057.92 267.5,1037.5C 268.356,1026.44 273.69,1018.44 283.5,1013.5 Z"/>
        <path style="opacity:1" fill="#ff9637" d="M 1580.5,1013.5 C 1597.84,1013.33 1615.17,1013.5 1632.5,1014C 1642.23,1017.89 1647.56,1025.06 1648.5,1035.5C 1632.88,1165.95 1585.38,1282.95 1506,1386.5C 1496.68,1396.54 1485.84,1398.71 1473.5,1393C 1463.67,1382.5 1453.83,1372 1444,1361.5C 1337.33,1255.5 1230.67,1149.5 1124,1043.5C 1116.34,1031.69 1118.51,1022.19 1130.5,1015C 1280.67,1014.83 1430.67,1014.33 1580.5,1013.5 Z"/>
        <path style="opacity:1" fill="#ff9637" d="M 887.5,1116.5 C 897.274,1115.3 904.44,1118.97 909,1127.5C 909.387,1294.5 909.72,1461.5 910,1628.5C 906.142,1639.78 898.142,1645.45 886,1645.5C 769,1630.96 662.167,1590.46 565.5,1524C 554.38,1515.88 543.546,1507.38 533,1498.5C 526.668,1489.53 526.002,1480.19 531,1470.5C 541.5,1460.67 552,1450.83 562.5,1441C 668.5,1334.33 774.5,1227.67 880.5,1121C 882.898,1119.48 885.231,1117.98 887.5,1116.5 Z"/>
        <path style="opacity:1" fill="#ff9637" d="M 1030.5,1116.5 C 1035.95,1115.83 1040.95,1116.99 1045.5,1120C 1162.36,1237.19 1279.53,1354.03 1397,1470.5C 1402.02,1480.7 1401.02,1490.37 1394,1499.5C 1302.97,1570.55 1200.47,1617.38 1086.5,1640C 1071.51,1642.31 1056.51,1644.47 1041.5,1646.5C 1023.29,1644.45 1015.29,1634.29 1017.5,1616C 1018.93,1579.01 1019.59,1542.01 1019.5,1505C 1018.34,1379.83 1017.84,1254.67 1018,1129.5C 1020.35,1123.32 1024.52,1118.98 1030.5,1116.5 Z"/>
</svg>
